<svg id="visual" viewBox="0 0 900 600" width="900" height="600" xmlns="http://www.w3.org/2000/svg" xmlns:xlink="http://www.w3.org/1999/xlink" version="1.1"><g stroke-width="1" stroke-linejoin="bevel"><path d="M478 274L482.3 264L443 259Z" fill="#1d4e6b" stroke="#1d4e6b"></path><path d="M482.3 264L491.3 230L443 259Z" fill="#246688" stroke="#246688"></path><path d="M491.3 230L485 218L443 259Z" fill="#081a28" stroke="#081a28"></path><path d="M485 218L407.7 246L443 259Z" fill="#1d4e6b" stroke="#1d4e6b"></path><path d="M397.7 334L487 355L478 274Z" fill="#1d4e6b" stroke="#1d4e6b"></path><path d="M397.7 334L478 274L443 259Z" fill="#246688" stroke="#246688"></path><path d="M478 274L560.6 326L482.3 264Z" fill="#205a7a" stroke="#205a7a"></path><path d="M482.3 264L560.6 326L491.3 230Z" fill="#15384f" stroke="#15384f"></path><path d="M407.7 246L397.7 334L443 259Z" fill="#297ea6" stroke="#297ea6"></path><path d="M407.7 246L361.7 270L397.7 334Z" fill="#277297" stroke="#277297"></path><path d="M365.7 213L355.4 269L361.7 270Z" fill="#277297" stroke="#277297"></path><path d="M361.7 270L326.4 316L397.7 334Z" fill="#112e42" stroke="#112e42"></path><path d="M485 218L365.7 213L407.7 246Z" fill="#081a28" stroke="#081a28"></path><path d="M407.7 246L365.7 213L361.7 270Z" fill="#246688" stroke="#246688"></path><path d="M487 355L560.6 326L478 274Z" fill="#277297" stroke="#277297"></path><path d="M491.3 230L515.3 155L485 218Z" fill="#15384f" stroke="#15384f"></path><path d="M524.3 147L515.3 155L600.6 200Z" fill="#19435d" stroke="#19435d"></path><path d="M485 218L488 139L365.7 213Z" fill="#205a7a" stroke="#205a7a"></path><path d="M515.3 155L488 139L485 218Z" fill="#1d4e6b" stroke="#1d4e6b"></path><path d="M410 383L501.3 385L487 355Z" fill="#15384f" stroke="#15384f"></path><path d="M487 355L501.3 385L560.6 326Z" fill="#1d4e6b" stroke="#1d4e6b"></path><path d="M600.6 200L515.3 155L491.3 230Z" fill="#205a7a" stroke="#205a7a"></path><path d="M515.3 155L524.3 147L488 139Z" fill="#081a28" stroke="#081a28"></path><path d="M359.7 381L410 383L397.7 334Z" fill="#19435d" stroke="#19435d"></path><path d="M397.7 334L410 383L487 355Z" fill="#246688" stroke="#246688"></path><path d="M488 139L348.4 176L365.7 213Z" fill="#19435d" stroke="#19435d"></path><path d="M272.1 211L280.1 303L355.4 269Z" fill="#081a28" stroke="#081a28"></path><path d="M280.1 303L326.4 316L355.4 269Z" fill="#246688" stroke="#246688"></path><path d="M355.4 269L326.4 316L361.7 270Z" fill="#246688" stroke="#246688"></path><path d="M616.6 258L600.6 200L491.3 230Z" fill="#081a28" stroke="#081a28"></path><path d="M560.6 326L616.6 258L491.3 230Z" fill="#0c2435" stroke="#0c2435"></path><path d="M326.4 316L359.7 381L397.7 334Z" fill="#1d4e6b" stroke="#1d4e6b"></path><path d="M596.6 382L614.9 323L560.6 326Z" fill="#297ea6" stroke="#297ea6"></path><path d="M560.6 326L614.9 323L616.6 258Z" fill="#205a7a" stroke="#205a7a"></path><path d="M524.3 147L467 93L488 139Z" fill="#246688" stroke="#246688"></path><path d="M488 139L467 93L348.4 176Z" fill="#15384f" stroke="#15384f"></path><path d="M495.3 20L467 93L524.3 147Z" fill="#246688" stroke="#246688"></path><path d="M477.3 440L519.3 424L501.3 385Z" fill="#19435d" stroke="#19435d"></path><path d="M501.3 385L596.6 382L560.6 326Z" fill="#246688" stroke="#246688"></path><path d="M477.3 440L501.3 385L410 383Z" fill="#15384f" stroke="#15384f"></path><path d="M467 93L338.4 134L348.4 176Z" fill="#0c2435" stroke="#0c2435"></path><path d="M272.1 211L355.4 269L365.7 213Z" fill="#15384f" stroke="#15384f"></path><path d="M357.7 461L477.3 440L410 383Z" fill="#081a28" stroke="#081a28"></path><path d="M519.3 424L596.6 382L501.3 385Z" fill="#112e42" stroke="#112e42"></path><path d="M614.9 323L643.9 284L616.6 258Z" fill="#19435d" stroke="#19435d"></path><path d="M679.9 212L656.9 162L600.6 200Z" fill="#00101c" stroke="#00101c"></path><path d="M692.1 352L643.9 284L614.9 323Z" fill="#19435d" stroke="#19435d"></path><path d="M272.1 211L365.7 213L348.4 176Z" fill="#081a28" stroke="#081a28"></path><path d="M326.4 316L316.4 399L359.7 381Z" fill="#1d4e6b" stroke="#1d4e6b"></path><path d="M465 512L484 452L477.3 440Z" fill="#112e42" stroke="#112e42"></path><path d="M477.3 440L484 452L519.3 424Z" fill="#15384f" stroke="#15384f"></path><path d="M540.6 468L615.6 401L596.6 382Z" fill="#1d4e6b" stroke="#1d4e6b"></path><path d="M338.4 134L272.1 211L348.4 176Z" fill="#246688" stroke="#246688"></path><path d="M288.4 389L316.4 399L326.4 316Z" fill="#00101c" stroke="#00101c"></path><path d="M359.7 381L357.7 461L410 383Z" fill="#0c2435" stroke="#0c2435"></path><path d="M338.4 134L265.1 209L272.1 211Z" fill="#205a7a" stroke="#205a7a"></path><path d="M272.1 211L218.9 223L280.1 303Z" fill="#00101c" stroke="#00101c"></path><path d="M540.6 468L596.6 382L519.3 424Z" fill="#1d4e6b" stroke="#1d4e6b"></path><path d="M596.6 382L615.6 401L614.9 323Z" fill="#0c2435" stroke="#0c2435"></path><path d="M467 93L352.7 84L338.4 134Z" fill="#112e42" stroke="#112e42"></path><path d="M338.4 134L236.1 85L265.1 209Z" fill="#0c2435" stroke="#0c2435"></path><path d="M656.9 162L610.6 114L600.6 200Z" fill="#0c2435" stroke="#0c2435"></path><path d="M600.6 200L610.6 114L524.3 147Z" fill="#0c2435" stroke="#0c2435"></path><path d="M352.7 84L339.4 86L338.4 134Z" fill="#112e42" stroke="#112e42"></path><path d="M259.1 353L288.4 389L326.4 316Z" fill="#297ea6" stroke="#297ea6"></path><path d="M259.1 353L326.4 316L280.1 303Z" fill="#205a7a" stroke="#205a7a"></path><path d="M679.9 212L600.6 200L616.6 258Z" fill="#081a28" stroke="#081a28"></path><path d="M484 452L540.6 468L519.3 424Z" fill="#0c2435" stroke="#0c2435"></path><path d="M643.9 284L679.9 212L616.6 258Z" fill="#1d4e6b" stroke="#1d4e6b"></path><path d="M686.1 213L679.9 212L643.9 284Z" fill="#277297" stroke="#277297"></path><path d="M175.9 268L259.1 353L280.1 303Z" fill="#277297" stroke="#277297"></path><path d="M306.4 496L357.7 461L285.1 481Z" fill="#081a28" stroke="#081a28"></path><path d="M316.4 399L357.7 461L359.7 381Z" fill="#15384f" stroke="#15384f"></path><path d="M484 452L465 512L540.6 468Z" fill="#112e42" stroke="#112e42"></path><path d="M467 93L345.7 67L352.7 84Z" fill="#205a7a" stroke="#205a7a"></path><path d="M352.7 84L345.7 67L339.4 86Z" fill="#1d4e6b" stroke="#1d4e6b"></path><path d="M175.9 204L218.9 223L193.9 137Z" fill="#1d4e6b" stroke="#1d4e6b"></path><path d="M469 0L345.7 67L467 93Z" fill="#112e42" stroke="#112e42"></path><path d="M724.1 320L686.1 213L643.9 284Z" fill="#297ea6" stroke="#297ea6"></path><path d="M679.9 212L686.1 213L656.9 162Z" fill="#297ea6" stroke="#297ea6"></path><path d="M656.9 162L622.9 97L610.6 114Z" fill="#246688" stroke="#246688"></path><path d="M594.6 26L495.3 20L524.3 147Z" fill="#205a7a" stroke="#205a7a"></path><path d="M653.9 71L622.9 97L656.9 162Z" fill="#277297" stroke="#277297"></path><path d="M594.6 26L524.3 147L610.6 114Z" fill="#0c2435" stroke="#0c2435"></path><path d="M688.1 408L692.1 352L615.6 401Z" fill="#1d4e6b" stroke="#1d4e6b"></path><path d="M615.6 401L692.1 352L614.9 323Z" fill="#297ea6" stroke="#297ea6"></path><path d="M236.1 85L338.4 134L339.4 86Z" fill="#1d4e6b" stroke="#1d4e6b"></path><path d="M265.1 209L218.9 223L272.1 211Z" fill="#15384f" stroke="#15384f"></path><path d="M540.6 468L617.9 457L615.6 401Z" fill="#081a28" stroke="#081a28"></path><path d="M357.7 461L465 512L477.3 440Z" fill="#205a7a" stroke="#205a7a"></path><path d="M540.6 468L602.9 494L617.9 457Z" fill="#112e42" stroke="#112e42"></path><path d="M487.3 0L469 0L495.3 20Z" fill="#205a7a" stroke="#205a7a"></path><path d="M495.3 20L469 0L467 93Z" fill="#246688" stroke="#246688"></path><path d="M556.6 0L487.3 0L495.3 20Z" fill="#112e42" stroke="#112e42"></path><path d="M802.4 335L724.1 320L796.7 400Z" fill="#1d4e6b" stroke="#1d4e6b"></path><path d="M692.1 352L724.1 320L643.9 284Z" fill="#277297" stroke="#277297"></path><path d="M763.4 262L725.1 205L686.1 213Z" fill="#1d4e6b" stroke="#1d4e6b"></path><path d="M686.1 213L725.1 205L656.9 162Z" fill="#297ea6" stroke="#297ea6"></path><path d="M685.1 442L688.1 408L615.6 401Z" fill="#246688" stroke="#246688"></path><path d="M718.1 92L653.9 71L656.9 162Z" fill="#246688" stroke="#246688"></path><path d="M622.9 97L594.6 26L610.6 114Z" fill="#1d4e6b" stroke="#1d4e6b"></path><path d="M653.9 71L594.6 26L622.9 97Z" fill="#297ea6" stroke="#297ea6"></path><path d="M548.6 532L602.9 494L540.6 468Z" fill="#297ea6" stroke="#297ea6"></path><path d="M617.9 457L685.1 442L615.6 401Z" fill="#15384f" stroke="#15384f"></path><path d="M594.6 26L556.6 0L495.3 20Z" fill="#00101c" stroke="#00101c"></path><path d="M285.1 481L316.4 399L288.4 389Z" fill="#0c2435" stroke="#0c2435"></path><path d="M285.1 481L357.7 461L316.4 399Z" fill="#205a7a" stroke="#205a7a"></path><path d="M357.7 461L421.7 554L465 512Z" fill="#0c2435" stroke="#0c2435"></path><path d="M182.9 398L228.1 418L259.1 353Z" fill="#0c2435" stroke="#0c2435"></path><path d="M259.1 353L228.1 418L288.4 389Z" fill="#246688" stroke="#246688"></path><path d="M469 0L356.7 0L345.7 67Z" fill="#081a28" stroke="#081a28"></path><path d="M345.7 67L236.1 85L339.4 86Z" fill="#0c2435" stroke="#0c2435"></path><path d="M228.1 418L285.1 481L288.4 389Z" fill="#15384f" stroke="#15384f"></path><path d="M356.7 0L353.4 0L345.7 67Z" fill="#00101c" stroke="#00101c"></path><path d="M465 512L548.6 532L540.6 468Z" fill="#297ea6" stroke="#297ea6"></path><path d="M542.3 554L548.6 532L465 512Z" fill="#277297" stroke="#277297"></path><path d="M602.9 494L685.1 442L617.9 457Z" fill="#15384f" stroke="#15384f"></path><path d="M802.4 335L799.4 322L724.1 320Z" fill="#112e42" stroke="#112e42"></path><path d="M698.1 574L685.1 442L602.9 494Z" fill="#297ea6" stroke="#297ea6"></path><path d="M175.9 204L175.9 268L218.9 223Z" fill="#112e42" stroke="#112e42"></path><path d="M218.9 223L175.9 268L280.1 303Z" fill="#112e42" stroke="#112e42"></path><path d="M224.1 66L236.1 85L265.1 0Z" fill="#19435d" stroke="#19435d"></path><path d="M193.9 137L218.9 223L265.1 209Z" fill="#205a7a" stroke="#205a7a"></path><path d="M306.4 496L421.7 554L357.7 461Z" fill="#277297" stroke="#277297"></path><path d="M236.1 85L193.9 137L265.1 209Z" fill="#112e42" stroke="#112e42"></path><path d="M786.4 175L737.4 149L725.1 205Z" fill="#112e42" stroke="#112e42"></path><path d="M725.1 205L737.4 149L656.9 162Z" fill="#00101c" stroke="#00101c"></path><path d="M799.4 322L763.4 262L724.1 320Z" fill="#00101c" stroke="#00101c"></path><path d="M724.1 320L763.4 262L686.1 213Z" fill="#277297" stroke="#277297"></path><path d="M516.3 600L542.3 554L465 512Z" fill="#081a28" stroke="#081a28"></path><path d="M548.6 532L602.9 552L602.9 494Z" fill="#277297" stroke="#277297"></path><path d="M737.4 149L718.1 92L656.9 162Z" fill="#1d4e6b" stroke="#1d4e6b"></path><path d="M653.9 71L648.9 0L594.6 26Z" fill="#19435d" stroke="#19435d"></path><path d="M594.6 26L648.9 0L556.6 0Z" fill="#277297" stroke="#277297"></path><path d="M265.1 0L236.1 85L345.7 67Z" fill="#15384f" stroke="#15384f"></path><path d="M236.1 85L224.1 66L193.9 137Z" fill="#112e42" stroke="#112e42"></path><path d="M175.9 204L151.6 270L175.9 268Z" fill="#19435d" stroke="#19435d"></path><path d="M148.6 372L182.9 398L259.1 353Z" fill="#00101c" stroke="#00101c"></path><path d="M126.6 244L151.6 270L175.9 204Z" fill="#0c2435" stroke="#0c2435"></path><path d="M148.6 372L259.1 353L175.9 268Z" fill="#1d4e6b" stroke="#1d4e6b"></path><path d="M228.1 418L191.9 447L285.1 481Z" fill="#246688" stroke="#246688"></path><path d="M698.1 0L648.9 0L653.9 71Z" fill="#00101c" stroke="#00101c"></path><path d="M542.3 554L602.9 552L548.6 532Z" fill="#246688" stroke="#246688"></path><path d="M737.4 149L729.1 79L718.1 92Z" fill="#00101c" stroke="#00101c"></path><path d="M718.1 92L729.1 79L653.9 71Z" fill="#297ea6" stroke="#297ea6"></path><path d="M811.7 54L729.1 79L737.4 149Z" fill="#205a7a" stroke="#205a7a"></path><path d="M353.4 0L265.1 0L345.7 67Z" fill="#15384f" stroke="#15384f"></path><path d="M185.9 440L228.1 418L182.9 398Z" fill="#19435d" stroke="#19435d"></path><path d="M185.9 440L191.9 447L228.1 418Z" fill="#205a7a" stroke="#205a7a"></path><path d="M285.1 481L246.1 539L306.4 496Z" fill="#246688" stroke="#246688"></path><path d="M400.7 600L418 600L421.7 554Z" fill="#1d4e6b" stroke="#1d4e6b"></path><path d="M111.6 406L185.9 440L182.9 398Z" fill="#297ea6" stroke="#297ea6"></path><path d="M193.9 53L193.9 137L224.1 66Z" fill="#112e42" stroke="#112e42"></path><path d="M137.6 73L153.6 145L193.9 137Z" fill="#15384f" stroke="#15384f"></path><path d="M193.9 137L153.6 145L175.9 204Z" fill="#205a7a" stroke="#205a7a"></path><path d="M87.3 284L148.6 372L151.6 270Z" fill="#15384f" stroke="#15384f"></path><path d="M151.6 270L148.6 372L175.9 268Z" fill="#19435d" stroke="#19435d"></path><path d="M763.4 262L786.4 175L725.1 205Z" fill="#297ea6" stroke="#297ea6"></path><path d="M88.3 204L126.6 244L175.9 204Z" fill="#081a28" stroke="#081a28"></path><path d="M206.9 0L193.9 53L224.1 66Z" fill="#19435d" stroke="#19435d"></path><path d="M400.7 600L421.7 554L351.4 600Z" fill="#205a7a" stroke="#205a7a"></path><path d="M421.7 554L516.3 600L465 512Z" fill="#19435d" stroke="#19435d"></path><path d="M542.3 554L589.6 600L602.9 552Z" fill="#246688" stroke="#246688"></path><path d="M724.1 320L692.1 352L777.4 421Z" fill="#297ea6" stroke="#297ea6"></path><path d="M763.4 262L808.7 275L786.4 175Z" fill="#081a28" stroke="#081a28"></path><path d="M692.1 352L688.1 408L777.4 421Z" fill="#19435d" stroke="#19435d"></path><path d="M418 600L516.3 600L421.7 554Z" fill="#246688" stroke="#246688"></path><path d="M351.4 600L421.7 554L306.4 496Z" fill="#00101c" stroke="#00101c"></path><path d="M799.4 322L808.7 275L763.4 262Z" fill="#15384f" stroke="#15384f"></path><path d="M777.4 421L688.1 408L685.1 442Z" fill="#277297" stroke="#277297"></path><path d="M799.4 322L827.7 316L808.7 275Z" fill="#15384f" stroke="#15384f"></path><path d="M729.1 79L698.1 0L653.9 71Z" fill="#15384f" stroke="#15384f"></path><path d="M793.4 21L698.1 0L729.1 79Z" fill="#246688" stroke="#246688"></path><path d="M176.9 516L246.1 539L191.9 447Z" fill="#00101c" stroke="#00101c"></path><path d="M191.9 447L246.1 539L285.1 481Z" fill="#1d4e6b" stroke="#1d4e6b"></path><path d="M776.4 485L777.4 421L685.1 442Z" fill="#297ea6" stroke="#297ea6"></path><path d="M293.4 578L351.4 600L306.4 496Z" fill="#205a7a" stroke="#205a7a"></path><path d="M246.1 539L293.4 578L306.4 496Z" fill="#0c2435" stroke="#0c2435"></path><path d="M88.3 204L175.9 204L153.6 145Z" fill="#246688" stroke="#246688"></path><path d="M88.3 204L101.3 260L126.6 244Z" fill="#081a28" stroke="#081a28"></path><path d="M126.6 244L101.3 260L151.6 270Z" fill="#297ea6" stroke="#297ea6"></path><path d="M516.3 600L589.6 600L542.3 554Z" fill="#00101c" stroke="#00101c"></path><path d="M698.1 574L776.4 485L685.1 442Z" fill="#19435d" stroke="#19435d"></path><path d="M777.4 421L796.7 400L724.1 320Z" fill="#112e42" stroke="#112e42"></path><path d="M802.4 335L827.7 316L799.4 322Z" fill="#081a28" stroke="#081a28"></path><path d="M265.1 0L206.9 0L224.1 66Z" fill="#0c2435" stroke="#0c2435"></path><path d="M193.9 53L137.6 73L193.9 137Z" fill="#297ea6" stroke="#297ea6"></path><path d="M839.7 386L827.7 316L802.4 335Z" fill="#205a7a" stroke="#205a7a"></path><path d="M808.7 275L851.7 179L786.4 175Z" fill="#246688" stroke="#246688"></path><path d="M135.6 0L137.6 73L193.9 53Z" fill="#205a7a" stroke="#205a7a"></path><path d="M101.3 260L87.3 284L151.6 270Z" fill="#19435d" stroke="#19435d"></path><path d="M111.6 406L156.6 481L185.9 440Z" fill="#15384f" stroke="#15384f"></path><path d="M185.9 440L156.6 481L191.9 447Z" fill="#1d4e6b" stroke="#1d4e6b"></path><path d="M0 259L87.3 284L101.3 260Z" fill="#0c2435" stroke="#0c2435"></path><path d="M111.6 406L182.9 398L148.6 372Z" fill="#19435d" stroke="#19435d"></path><path d="M246.1 539L243.1 600L293.4 578Z" fill="#246688" stroke="#246688"></path><path d="M95.3 93L88.3 204L153.6 145Z" fill="#15384f" stroke="#15384f"></path><path d="M63.3 350L111.6 406L148.6 372Z" fill="#297ea6" stroke="#297ea6"></path><path d="M165.6 532L176.9 516L156.6 481Z" fill="#19435d" stroke="#19435d"></path><path d="M156.6 481L176.9 516L191.9 447Z" fill="#0c2435" stroke="#0c2435"></path><path d="M777.4 421L853.7 462L796.7 400Z" fill="#277297" stroke="#277297"></path><path d="M796.7 400L839.7 386L802.4 335Z" fill="#00101c" stroke="#00101c"></path><path d="M698.1 574L602.9 494L602.9 552Z" fill="#00101c" stroke="#00101c"></path><path d="M95.3 93L111.6 89L92.3 45Z" fill="#277297" stroke="#277297"></path><path d="M137.6 73L111.6 89L153.6 145Z" fill="#297ea6" stroke="#297ea6"></path><path d="M667.1 600L698.1 574L602.9 552Z" fill="#246688" stroke="#246688"></path><path d="M589.6 600L667.1 600L602.9 552Z" fill="#1d4e6b" stroke="#1d4e6b"></path><path d="M853.7 462L839.7 386L796.7 400Z" fill="#00101c" stroke="#00101c"></path><path d="M900 245L851.7 179L808.7 275Z" fill="#1d4e6b" stroke="#1d4e6b"></path><path d="M786.4 175L811.7 54L737.4 149Z" fill="#0c2435" stroke="#0c2435"></path><path d="M865.7 159L851.7 179L900 202Z" fill="#1d4e6b" stroke="#1d4e6b"></path><path d="M667.1 600L676.9 600L698.1 574Z" fill="#297ea6" stroke="#297ea6"></path><path d="M777.4 553L804.7 520L776.4 485Z" fill="#081a28" stroke="#081a28"></path><path d="M138.6 600L165.6 532L95.3 576Z" fill="#246688" stroke="#246688"></path><path d="M176.9 516L165.6 532L246.1 539Z" fill="#246688" stroke="#246688"></path><path d="M293.4 578L243.1 600L351.4 600Z" fill="#15384f" stroke="#15384f"></path><path d="M164.9 600L243.1 600L246.1 539Z" fill="#00101c" stroke="#00101c"></path><path d="M92.3 45L111.6 89L137.6 73Z" fill="#277297" stroke="#277297"></path><path d="M111.6 89L95.3 93L153.6 145Z" fill="#297ea6" stroke="#297ea6"></path><path d="M865.7 159L811.7 54L786.4 175Z" fill="#277297" stroke="#277297"></path><path d="M811.7 54L793.4 21L729.1 79Z" fill="#1d4e6b" stroke="#1d4e6b"></path><path d="M87.3 284L63.3 350L148.6 372Z" fill="#112e42" stroke="#112e42"></path><path d="M111.6 406L31.3 496L156.6 481Z" fill="#15384f" stroke="#15384f"></path><path d="M0 334L63.3 350L87.3 284Z" fill="#297ea6" stroke="#297ea6"></path><path d="M0 259L101.3 260L88.3 204Z" fill="#00101c" stroke="#00101c"></path><path d="M851.7 179L865.7 159L786.4 175Z" fill="#081a28" stroke="#081a28"></path><path d="M900 278L808.7 275L827.7 316Z" fill="#205a7a" stroke="#205a7a"></path><path d="M206.9 0L135.6 0L193.9 53Z" fill="#277297" stroke="#277297"></path><path d="M63.3 350L59.3 404L111.6 406Z" fill="#205a7a" stroke="#205a7a"></path><path d="M776.4 485L853.7 462L777.4 421Z" fill="#19435d" stroke="#19435d"></path><path d="M777.4 553L776.4 485L698.1 574Z" fill="#00101c" stroke="#00101c"></path><path d="M135.6 0L92.3 45L137.6 73Z" fill="#0c2435" stroke="#0c2435"></path><path d="M0 199L0 259L88.3 204Z" fill="#19435d" stroke="#19435d"></path><path d="M766.4 600L777.4 553L698.1 574Z" fill="#081a28" stroke="#081a28"></path><path d="M841.7 0L810.4 0L811.7 54Z" fill="#205a7a" stroke="#205a7a"></path><path d="M811.7 54L810.4 0L793.4 21Z" fill="#205a7a" stroke="#205a7a"></path><path d="M793.4 21L810.4 0L698.1 0Z" fill="#00101c" stroke="#00101c"></path><path d="M900 348L827.7 316L839.7 386Z" fill="#15384f" stroke="#15384f"></path><path d="M900 348L900 278L827.7 316Z" fill="#081a28" stroke="#081a28"></path><path d="M900 278L900 245L808.7 275Z" fill="#00101c" stroke="#00101c"></path><path d="M900 42L841.7 0L811.7 54Z" fill="#112e42" stroke="#112e42"></path><path d="M900 505L853.7 462L804.7 520Z" fill="#19435d" stroke="#19435d"></path><path d="M804.7 520L853.7 462L776.4 485Z" fill="#1d4e6b" stroke="#1d4e6b"></path><path d="M900 245L900 202L851.7 179Z" fill="#205a7a" stroke="#205a7a"></path><path d="M900 384L900 348L839.7 386Z" fill="#1d4e6b" stroke="#1d4e6b"></path><path d="M138.6 600L164.9 600L165.6 532Z" fill="#19435d" stroke="#19435d"></path><path d="M165.6 532L164.9 600L246.1 539Z" fill="#277297" stroke="#277297"></path><path d="M853.7 462L900 384L839.7 386Z" fill="#00101c" stroke="#00101c"></path><path d="M676.9 600L766.4 600L698.1 574Z" fill="#205a7a" stroke="#205a7a"></path><path d="M900 556L900 505L804.7 520Z" fill="#112e42" stroke="#112e42"></path><path d="M900 99L811.7 54L865.7 159Z" fill="#0c2435" stroke="#0c2435"></path><path d="M0 199L88.3 204L95.3 93Z" fill="#15384f" stroke="#15384f"></path><path d="M63.3 350L0 334L59.3 404Z" fill="#246688" stroke="#246688"></path><path d="M0 259L0 265L87.3 284Z" fill="#081a28" stroke="#081a28"></path><path d="M900 202L900 99L865.7 159Z" fill="#297ea6" stroke="#297ea6"></path><path d="M0 87L0 199L95.3 93Z" fill="#1d4e6b" stroke="#1d4e6b"></path><path d="M0 265L0 334L87.3 284Z" fill="#0c2435" stroke="#0c2435"></path><path d="M95.3 576L165.6 532L156.6 481Z" fill="#246688" stroke="#246688"></path><path d="M95.3 576L156.6 481L31.3 496Z" fill="#00101c" stroke="#00101c"></path><path d="M31.3 496L111.6 406L59.3 404Z" fill="#15384f" stroke="#15384f"></path><path d="M900 99L900 42L811.7 54Z" fill="#00101c" stroke="#00101c"></path><path d="M0 472L31.3 496L59.3 404Z" fill="#205a7a" stroke="#205a7a"></path><path d="M0 334L0 426L59.3 404Z" fill="#19435d" stroke="#19435d"></path><path d="M92.3 45L0 87L95.3 93Z" fill="#246688" stroke="#246688"></path><path d="M0 26L0 87L92.3 45Z" fill="#297ea6" stroke="#297ea6"></path><path d="M135.6 0L37.3 0L92.3 45Z" fill="#112e42" stroke="#112e42"></path><path d="M846.7 600L804.7 520L777.4 553Z" fill="#00101c" stroke="#00101c"></path><path d="M853.7 462L900 505L900 384Z" fill="#246688" stroke="#246688"></path><path d="M0 426L0 472L59.3 404Z" fill="#0c2435" stroke="#0c2435"></path><path d="M0 525L74.3 600L95.3 576Z" fill="#00101c" stroke="#00101c"></path><path d="M900 42L900 0L841.7 0Z" fill="#081a28" stroke="#081a28"></path><path d="M766.4 600L846.7 600L777.4 553Z" fill="#15384f" stroke="#15384f"></path><path d="M0 525L95.3 576L31.3 496Z" fill="#081a28" stroke="#081a28"></path><path d="M95.3 576L74.3 600L138.6 600Z" fill="#297ea6" stroke="#297ea6"></path><path d="M37.3 0L0 26L92.3 45Z" fill="#15384f" stroke="#15384f"></path><path d="M846.7 600L900 556L804.7 520Z" fill="#19435d" stroke="#19435d"></path><path d="M37.3 0L0 0L0 26Z" fill="#00101c" stroke="#00101c"></path><path d="M0 472L0 525L31.3 496Z" fill="#112e42" stroke="#112e42"></path><path d="M846.7 600L900 600L900 556Z" fill="#297ea6" stroke="#297ea6"></path><path d="M0 525L0 600L74.3 600Z" fill="#246688" stroke="#246688"></path></g></svg>